<?xml version="1.0" encoding="UTF-8"?>
<svg id="Layer_1" data-name="Layer 1" xmlns="http://www.w3.org/2000/svg" viewBox="0 0 406.48 406.48">
  <defs>
    <style>
      .cls-1 {
        fill: #dae3da;
      }

      .cls-2 {
        fill: #39919b;
      }

      .cls-3 {
        fill: #a2b7a1;
      }
    </style>
  </defs>
  <circle class="cls-2" cx="203.24" cy="203.24" r="203.24"/>
  <path class="cls-3" d="M292.61,64.53s77.37,10.09,77.37,95.31-38.68,128.38-38.68,128.38c0,0-15.7,24.11-54.38,53.82-38.68,29.71-80.65,30.27-80.65,30.27,0,0-36.52,7.29-72.96-20.18s-70.08-93.06-70.08-93.06c0,0-23.55-36.44-17.38-88.58s53.82-75.12,53.82-75.12c0,0,19.06-12.89,66.72-5.61,0,0,32.93,13.1,45.33,12.49s35.38-10.59,45.97-20.26,24.24-18.59,44.93-17.46h-.01Z"/>
  <path class="cls-1" d="M213.37,138.83c1.56-1.52,3.97-3.42,6.27-3.41,1.09,0,1.84.71,2.59,1.42s1.67,1.49,1.81,2.59-.33,2.31-.61,3.36-.61,2.19-1,3.26c-.66,1.8-1.63,3.62-3.16,4.84-.85.68-1.87,1.11-2.75,1.74-.97.7-1.76,1.88-2.88,2.33-1.94.77-4.85-.5-6.54-1.42-.99-.54-1.92-1.19-2.8-1.88s-2.2-1.49-2.75-2.51-.77-2.4-1.03-3.51c-.28-1.18-.59-2.53-.27-3.73s1.18-2.43,1.86-3.46,1.52-2,2.67-2.47c2.29-.93,5.4,1.2,7.16,2.51,1.54,1.16,3.04-1.44,1.51-2.59-2.32-1.74-5.72-3.65-8.73-3.02s-4.87,3.35-6.3,5.88c-.67,1.18-1.22,2.38-1.29,3.76-.09,1.76.37,3.58.85,5.26.42,1.48.79,2.99,1.91,4.11s2.4,2.04,3.65,2.93c2.47,1.78,5.51,3.16,8.59,3.32,1.46.07,2.85-.32,4.02-1.21.56-.43,1.02-.95,1.55-1.41.69-.6,1.51-1,2.28-1.48,2.45-1.52,4.01-3.84,5.07-6.48.47-1.17.84-2.38,1.18-3.6.43-1.59.98-3.3.76-4.97-.2-1.58-1.13-2.79-2.23-3.88-1.23-1.22-2.53-2.37-4.3-2.62-3.39-.49-6.91,1.97-9.21,4.21-1.38,1.35.74,3.47,2.12,2.12h0Z"/>
  <path class="cls-1" d="M194.26,131c7.52-2.5,15.47-3.38,23.35-2.63,3.93.37,7.83,1.19,11.59,2.39,3.34,1.06,7.23,2.31,9.74,4.88,5.4,5.53-.91,14.04-4.96,18.28-4.74,4.95-10.72,8.62-17.05,11.18-15.13,6.11-31.58,6.03-47.62,6.83-8.7.43-17.29,1.35-25.85,2.98s-16.94,3.69-25.45,5.33c-15.42,2.98-31.93,4.51-46.99-.99-1.83-.67-3.61-1.45-5.35-2.33l.54,2.05c3.8-5.01,10.47-6.82,16.48-7.15,7.9-.43,15.76,1.19,23.35,3.24,7.97,2.15,15.85,4.63,23.75,6.99s16.25,4.84,24.37,7.26c11.26,3.35,27.15,7.12,30.36,20.39,1.45,5.98-.42,12.13-5.79,15.41-2.86,1.74-6.07,2.79-9.06,4.25-2.82,1.37-5.37,3.22-7.55,5.46-4.44,4.57-7.31,10.38-9.64,16.24-2.79,7.01-5.2,14.28-6.77,21.66-.83,3.9-1.4,7.87-1.57,11.85s.16,7.9.37,11.84c.35,6.74.51,14.48-4.25,19.84-3.32,3.74-9.19,6.84-13.94,3.79-5.24-3.36-4.74-10.95-2.2-15.8,1.65-3.13,4-5.79,6.44-8.31s4.96-4.98,7.46-7.43c5.12-5.02,10.32-9.95,15.71-14.67,10.72-9.4,22.26-18.01,35.05-24.41,3.13-1.57,6.34-3,9.61-4.26s7.07-2.91,10.74-2.83c6.01.13,8.62,6.9,13.67,9.15,3.01,1.34,5.98.41,9.1.72,3.57.36,3.44,3.96,3.16,6.74-.83,8.17-1.94,16.32-3.25,24.43s-2.81,16.14-4.54,24.14c-.78,3.6-2.04,7.33-2.2,11.03-.15,3.48,1.56,6.06,4.86,7.19,6.33,2.18,13.75,1.7,19.92-.75,2.92-1.16,6.24-2.72,8.26-5.21,2.14-2.63,2-6.14-1.35-7.63-6.14-2.73-13.34-1.88-19.82-3.17-1.58-.31-3.16-.73-4.65-1.37-1.34-.58-3.3-1.44-4.01-2.81-.77-1.5.46-3.26,1.34-4.42,1.12-1.47,2.39-2.83,3.58-4.24,9.61-11.35,19.14-23.82,21.25-38.98.51-3.67.58-7.35.07-11.02-.46-3.29-1.15-7.13-4.15-9.06-1.52-.98-3.41-1.45-5.11-2.04-1.94-.67-3.88-1.35-5.82-2.02-3.96-1.38-7.92-2.75-11.88-4.13-3.23-1.12-6.56-2.09-9.61-3.65-2.34-1.2-4.98-2.86-6.02-5.41-1.6-3.9,1.42-6.82,4.58-8.49,6.64-3.51,18.37-5.25,17.86-15.05-.1-1.93-.67-3.88-.42-5.82.19-1.46.97-2.69,2.04-3.67,2.6-2.38,6.27-2.65,9.62-2.41,4.04.29,8.05,1.03,12.08,1.45s8.05.73,12.08.94c15.96.81,31.99-.07,47.77-2.55,7.67-1.21,15.27-2.81,22.78-4.79,1.28-.34,1.44-2.08.36-2.74-10.63-6.57-23.91-8.5-35.99-5.34-6.34,1.66-11.85,5.09-17.74,7.82-2.98,1.38-6.13,2.51-9.41,2.86s-6.58.02-9.8-.62c-6.6-1.32-12.92-3.8-19.57-4.91-7.21-1.2-14.59-.03-21.76-1.52s-13.08-4.52-19.15-7.81c-5.31-2.87-10.83-5.72-15.33-9.79s-7.6-9.2-6.8-15.3c.61-4.62,3.53-9.7,8.62-10.18,1.91-.18,1.92-3.18,0-3-10.68,1.01-14.09,14.51-9.93,22.92,2.73,5.51,7.68,9.52,12.79,12.74,5.73,3.61,11.84,6.92,18.04,9.65,3.26,1.43,6.62,2.68,10.09,3.48,3.67.85,7.4,1.09,11.15,1.12s7.68-.05,11.48.59c3.47.58,6.87,1.54,10.25,2.5,6.59,1.88,13.43,3.9,20.35,3.09s12.83-4.48,18.96-7.48c13.42-6.58,29.44-6.13,42.23,1.78l.36-2.74c-15.96,4.2-32.35,6.67-48.85,7.34-8.15.33-16.32.22-24.46-.32-4.11-.27-8.21-.66-12.3-1.15s-8.24-1.44-12.35-.99c-3.2.35-6.42,1.6-8.53,4.13-.99,1.19-1.72,2.57-1.98,4.1-.33,1.94.05,3.82.25,5.74.24,2.29-.09,4.33-1.72,6.02-1.34,1.39-3.08,2.32-4.81,3.13-3.81,1.78-8.02,2.87-11.53,5.24s-5.84,6.59-4.17,10.92c2.28,5.88,9.26,8.14,14.67,10.02,4.04,1.4,8.07,2.81,12.11,4.21s8.05,2.52,11.89,4.15c3.45,1.47,3.79,6.14,4.04,9.42.29,3.79-.03,7.61-.84,11.32-1.64,7.53-5.14,14.43-9.43,20.78-2.21,3.26-4.61,6.38-7.1,9.43s-5.1,5.78-7.39,8.85c-2.07,2.78-2.95,6.46-.02,9.02,2.51,2.19,5.92,3.34,9.14,3.98,3.4.67,6.88.85,10.33,1.18,1.73.16,3.46.37,5.16.71,1.36.28,3.73.54,4.7,1.62,1.05,1.17-.82,2.92-1.68,3.59-1.35,1.06-2.93,1.91-4.49,2.63-3.16,1.47-6.66,2.29-10.13,2.45-3.22.15-7.1-.06-10.05-1.51-3.3-1.62-1.61-6.3-.99-9.01,1.87-8.22,3.52-16.49,4.94-24.81,1.42-8.28,2.61-16.61,3.57-24.95.38-3.31,1.37-7.32.14-10.57s-4.39-4.16-7.6-4.02c-1.58.07-3.23.33-4.79-.02-1.27-.28-2.41-.97-3.41-1.79-2.19-1.81-3.95-4.07-6.23-5.78-6.07-4.54-13.82-1.08-20,1.44-13.52,5.5-25.76,13.59-37.05,22.76-5.72,4.65-11.21,9.59-16.56,14.66s-10.59,9.95-15.44,15.31c-4.48,4.95-8.14,11-7.18,17.92.81,5.85,5.35,10.8,11.54,10.56,5.77-.23,11.05-4.32,13.82-9.21,3.75-6.61,2.95-14.85,2.53-22.13-.23-3.97-.31-7.93.08-11.89s1.26-8.15,2.31-12.13c1.9-7.14,4.26-14.38,7.4-21.08,2.72-5.8,6.39-11.44,12.01-14.78s12.81-4.52,16.54-10.55c3.23-5.23,2.91-12.03.39-17.47-2.71-5.84-8.22-9.93-13.89-12.63-6.46-3.07-13.47-4.87-20.3-6.91-8.28-2.47-16.56-4.93-24.85-7.4s-16.13-5.03-24.33-6.98c-7.45-1.78-15.32-3.01-22.98-2-6.21.82-12.2,3.25-16.07,8.36-.47.62-.12,1.72.54,2.05,14.91,7.55,32.13,7.36,48.25,4.77,9.04-1.45,17.93-3.62,26.89-5.48s18.11-3.19,27.34-3.72c16.9-.97,34.35-.53,50.37-6.79,6.74-2.63,13.13-6.31,18.3-11.43,4.76-4.71,10.55-12.31,8.14-19.45-1.22-3.61-4.33-5.84-7.68-7.34-3.74-1.67-7.68-2.91-11.7-3.73-8.14-1.65-16.59-1.62-24.71.15-2,.44-3.97.99-5.91,1.63-1.82.61-1.04,3.5.8,2.89h.05Z"/>
</svg>